<svg xmlns="http://www.w3.org/2000/svg" width="426.252" height="90" viewBox="0 0 426.252 90">
  <g id="logo-black" transform="translate(-0.959)">
    <g id="_807604ab-15e9-4a31-9558-8c3d6e6e04a8" data-name="807604ab-15e9-4a31-9558-8c3d6e6e04a8" transform="translate(111.004 -5.878)">
      <path id="Path_3" data-name="Path 3" d="M12.008,48.747h0a2.915,2.915,0,0,1-.882,2.141h0a2.879,2.879,0,0,1-2.183.882h0a2.965,2.965,0,0,1-2.183-.882h0a2.915,2.915,0,0,1-.882-2.141h0V8.943h0A3.017,3.017,0,0,1,6.76,6.718h0a3.044,3.044,0,0,1,2.183-.84H20.7A15.6,15.6,0,0,1,28.467,7.81h0a13.7,13.7,0,0,1,5.374,5.416h0a16.292,16.292,0,0,1,1.889,7.894h0a15.316,15.316,0,0,1-1.889,7.642h0a13.738,13.738,0,0,1-5.374,5.206h0A15.876,15.876,0,0,1,20.7,35.857H12.008ZM20.7,30.231h0a9.011,9.011,0,0,0,6.592-2.561h0a8.87,8.87,0,0,0,2.561-6.55h0a9.574,9.574,0,0,0-2.561-6.886h0A8.72,8.72,0,0,0,20.7,11.5H12.008V30.231ZM57.649,19.272h0a10.331,10.331,0,0,1,4.913.966h0a2.709,2.709,0,0,1,1.763,2.351h0a1.635,1.635,0,0,1-.084.588h0a2.244,2.244,0,0,1-2.351,1.847h0a6.843,6.843,0,0,1-.882-.084h0a22.721,22.721,0,0,0-3.821-.42h0a11.02,11.02,0,0,0-6.8,1.931h0a6.19,6.19,0,0,0-2.6,5.248h0V48.831h0a3.062,3.062,0,0,1-.714,2.183h0a3.017,3.017,0,0,1-2.225.756h0a3.156,3.156,0,0,1-2.183-.714h0a3.017,3.017,0,0,1-.756-2.225h0V22.589h0a2.956,2.956,0,0,1,.756-2.183h0a3.046,3.046,0,0,1,2.183-.756h0a2.6,2.6,0,0,1,2.939,2.939h0v1.092h0a12.364,12.364,0,0,1,4.367-3.233h0a13.026,13.026,0,0,1,5.5-1.176Zm27.418.126h0a16.529,16.529,0,0,1,8.313,2.1h0a14.867,14.867,0,0,1,5.752,5.794h0a16.781,16.781,0,0,1,2.1,8.439h0a16.967,16.967,0,0,1-2.057,8.4h0a14.5,14.5,0,0,1-5.752,5.794h0a16.465,16.465,0,0,1-8.355,2.1h0a16.7,16.7,0,0,1-8.4-2.1h0a14.432,14.432,0,0,1-5.794-5.794h0a16.967,16.967,0,0,1-2.057-8.4h0a17.053,17.053,0,0,1,2.057-8.439h0A14.432,14.432,0,0,1,76.669,21.5h0a16.7,16.7,0,0,1,8.4-2.1Zm0,5.29h0a10.149,10.149,0,0,0-5.374,1.428h0a9.663,9.663,0,0,0-3.737,3.9h0a12.1,12.1,0,0,0-1.344,5.71h0A11.7,11.7,0,0,0,75.955,41.4h0a9.663,9.663,0,0,0,3.737,3.9h0a10.149,10.149,0,0,0,5.374,1.428h0A10.289,10.289,0,0,0,90.441,45.3h0a9.387,9.387,0,0,0,3.695-3.9h0a11.7,11.7,0,0,0,1.344-5.668h0a12.1,12.1,0,0,0-1.344-5.71h0a9.387,9.387,0,0,0-3.695-3.9h0a10.289,10.289,0,0,0-5.374-1.428Zm52.82-18.81h0a2.868,2.868,0,0,1,2.183.84h0a2.814,2.814,0,0,1,.84,2.141h0v26.83h0A16.421,16.421,0,0,1,138.768,44h0a15.686,15.686,0,0,1-5.836,5.878h0a15.887,15.887,0,0,1-8.188,2.141h0a16.34,16.34,0,0,1-8.272-2.141h0A15.292,15.292,0,0,1,110.637,44h0a16.421,16.421,0,0,1-2.141-8.314h0a17.525,17.525,0,0,1,1.973-8.314h0a15.045,15.045,0,0,1,5.416-5.878h0a14.468,14.468,0,0,1,7.684-2.1h0a14.319,14.319,0,0,1,6.34,1.428h0a14.179,14.179,0,0,1,5,3.9h0V8.859h0a2.814,2.814,0,0,1,.84-2.141h0a2.991,2.991,0,0,1,2.141-.84ZM124.745,46.732h0a10.211,10.211,0,0,0,5.332-1.428h0a10.357,10.357,0,0,0,3.695-3.989h0a11.479,11.479,0,0,0,1.386-5.626h0a11.479,11.479,0,0,0-1.386-5.626h0a10.439,10.439,0,0,0-3.695-3.947h0a10.211,10.211,0,0,0-5.332-1.428h0a10.211,10.211,0,0,0-5.332,1.428h0a10.656,10.656,0,0,0-3.779,3.947h0a11.766,11.766,0,0,0-1.344,5.626h0a11.766,11.766,0,0,0,1.344,5.626h0a10.567,10.567,0,0,0,3.779,3.989h0a10.211,10.211,0,0,0,5.332,1.428Zm53.24-27.166h0a2.954,2.954,0,0,1,2.183.84h0a2.868,2.868,0,0,1,.84,2.183h0v26.2h0a2.9,2.9,0,0,1-.84,2.141h0a2.954,2.954,0,0,1-2.183.84h0a2.9,2.9,0,0,1-2.141-.84h0a2.9,2.9,0,0,1-.84-2.141h0v-.63h0a13.643,13.643,0,0,1-4.493,2.9h0a14.888,14.888,0,0,1-5.5,1.008h0A15.005,15.005,0,0,1,157.7,50.3h0a12.347,12.347,0,0,1-5.038-5.122h0a16.835,16.835,0,0,1-1.847-8.146h0V22.589h0a2.965,2.965,0,0,1,.882-2.183h0a2.9,2.9,0,0,1,2.141-.84h0a2.9,2.9,0,0,1,2.141.84h0a3.044,3.044,0,0,1,.84,2.183h0V37.033h0q0,4.745,2.561,7.222h0a9.463,9.463,0,0,0,6.8,2.435h0a9.9,9.9,0,0,0,4.493-1.008h0a8.233,8.233,0,0,0,3.191-2.729h0A6.67,6.67,0,0,0,175,39.132h0V22.589h0a2.868,2.868,0,0,1,.84-2.183h0a2.9,2.9,0,0,1,2.141-.84Zm27.88-.168h0a14.573,14.573,0,0,1,11.5,5.29h0a2.137,2.137,0,0,1,.588,1.512h0a2.583,2.583,0,0,1-1.3,2.183h0a2.254,2.254,0,0,1-1.344.42h0a2.906,2.906,0,0,1-2.267-1.05h0a9.476,9.476,0,0,0-3.233-2.351h0a10.233,10.233,0,0,0-3.947-.714h0a9.572,9.572,0,0,0-7.348,3.023h0a11.3,11.3,0,0,0-2.813,8.02h0A12.005,12.005,0,0,0,197,41.4h0a9.75,9.75,0,0,0,3.695,3.9h0a10.448,10.448,0,0,0,5.458,1.428h0a9.788,9.788,0,0,0,6.466-2.057h0a3.575,3.575,0,0,1,2.183-.84h0a2.448,2.448,0,0,1,1.512.546h0a2.677,2.677,0,0,1,1.134,2.1h0a2.208,2.208,0,0,1-.714,1.6h0a14.934,14.934,0,0,1-10.581,3.947h0a16.613,16.613,0,0,1-8.355-2.1h0a15.379,15.379,0,0,1-5.794-5.878h0a16.679,16.679,0,0,1-2.1-8.314h0a17.2,17.2,0,0,1,2.057-8.439h0a14.3,14.3,0,0,1,5.668-5.794h0a16.216,16.216,0,0,1,8.23-2.1Zm34.724,26.494h0a2.349,2.349,0,0,1,1.805.84h0a3.129,3.129,0,0,1,.714,2.1h0a2.712,2.712,0,0,1-.966,2.141h0a3.761,3.761,0,0,1-2.477.8h-1.05a9.913,9.913,0,0,1-5.29-1.47h0a10.841,10.841,0,0,1-3.737-4.115h0a12.283,12.283,0,0,1-1.344-5.794h0V25.864h-2.687a2.815,2.815,0,0,1-2.015-.714h0a2.329,2.329,0,0,1-.756-1.763h0a2.477,2.477,0,0,1,.756-1.889h0a2.922,2.922,0,0,1,2.015-.672h2.687V12.344h0a2.762,2.762,0,0,1,.84-2.1h0a2.762,2.762,0,0,1,2.1-.84h0a2.9,2.9,0,0,1,2.141.84h0a2.838,2.838,0,0,1,.8,2.1h0v8.481h5a2.922,2.922,0,0,1,2.015.672h0a2.477,2.477,0,0,1,.756,1.889h0a2.329,2.329,0,0,1-.756,1.763h0a2.815,2.815,0,0,1-2.015.714h-5V40.392h0a6.04,6.04,0,0,0,1.3,3.947h0a4.013,4.013,0,0,0,3.191,1.554h1.973Zm10.455-23.261h0a2.879,2.879,0,0,1,.882-2.183h0a2.983,2.983,0,0,1,2.141-.8h0a3.04,3.04,0,0,1,2.183.8h0a3.04,3.04,0,0,1,.8,2.183h0V48.789h0a2.983,2.983,0,0,1-.8,2.141h0a2.953,2.953,0,0,1-2.183.84h0a2.9,2.9,0,0,1-2.141-.84h0a2.828,2.828,0,0,1-.882-2.141h0Zm3.023-16h0a3.72,3.72,0,0,1,2.729,1.134h0a3.861,3.861,0,0,1,1.134,2.771h0a3.812,3.812,0,0,1-1.134,2.729h0a3.72,3.72,0,0,1-2.729,1.134h0a3.72,3.72,0,0,1-2.729-1.134h0a3.744,3.744,0,0,1-1.176-2.729h0a3.791,3.791,0,0,1,1.176-2.771h0a3.72,3.72,0,0,1,2.729-1.134Zm28.048,4.661h0a6.78,6.78,0,0,0-5.29,2.183h0a8.052,8.052,0,0,0-2.015,5.752h0v1.6h6a2.859,2.859,0,0,1,1.973.672h0a2.412,2.412,0,0,1,.8,1.889h0a2.273,2.273,0,0,1-.8,1.763h0a2.757,2.757,0,0,1-1.973.714h-6V48.789h0a2.954,2.954,0,0,1-.84,2.183h0a3.067,3.067,0,0,1-2.267.8h0a2.97,2.97,0,0,1-2.057-.8h0a2.953,2.953,0,0,1-.84-2.183h0V25.864h-2.519a2.909,2.909,0,0,1-2.015-.714h0a2.329,2.329,0,0,1-.756-1.763h0a2.477,2.477,0,0,1,.756-1.889h0a3.021,3.021,0,0,1,2.015-.672H268.8V19.818h0a15.387,15.387,0,0,1,1.68-7.348h0a12.3,12.3,0,0,1,4.7-4.871h0a13.752,13.752,0,0,1,6.928-1.721h0a3.178,3.178,0,0,1,2.141.756h0a2.482,2.482,0,0,1,.84,1.931h0a2.613,2.613,0,0,1-.84,1.973h0a3.178,3.178,0,0,1-2.141.756Zm32.246,8.649h0a2.364,2.364,0,0,1,1.847,2.267h0a3.615,3.615,0,0,1-.378,1.428h0L297.859,64.073h0a2.423,2.423,0,0,1-2.309,1.805h0a3.668,3.668,0,0,1-1.386-.336h0a2.464,2.464,0,0,1-1.763-2.309h0a3.245,3.245,0,0,1,.336-1.386h0l5.878-13.226L285.388,23.513h0a2.527,2.527,0,0,1-.294-1.218h0a2.353,2.353,0,0,1,.462-1.428h0a3.248,3.248,0,0,1,1.26-1.008h0a3.04,3.04,0,0,1,1.176-.21h0a2.582,2.582,0,0,1,2.435,1.638h0l10.791,21.372,9.447-21.33h0a2.453,2.453,0,0,1,2.309-1.679h0a3.236,3.236,0,0,1,1.386.294Z" fill="#0a6775"/>
    </g>
    <g id="_28a1056c-9d63-4bf3-bc14-bd8d75e81275" data-name="28a1056c-9d63-4bf3-bc14-bd8d75e81275" transform="translate(-16.776 -21.176)">
      <path id="Path_4" data-name="Path 4" d="M101.515,69.75a12.841,12.841,0,0,1,2.25.132A37.764,37.764,0,0,0,85.368,40.9a20.325,20.325,0,0,1-38.382,0,37.764,37.764,0,0,0-18.4,28.985,12.11,12.11,0,0,1,2.25-.132A20.391,20.391,0,0,1,51.221,90.132a20.613,20.613,0,0,1-6.088,14.559,37.816,37.816,0,0,0,42.353,0A20.4,20.4,0,0,1,101.515,69.75Z" fill="#0a6775"/>
      <path id="Path_5" data-name="Path 5" d="M66.176,47.25a13.037,13.037,0,1,0-13.1-12.971A13.133,13.133,0,0,0,66.176,47.25ZM30.838,77.029a13.1,13.1,0,1,0,13.1,13.1,13.307,13.307,0,0,0-13.1-13.1Zm70.676,0a13.1,13.1,0,1,0,13.1,13.1A13.133,13.133,0,0,0,101.515,77.029Z" fill="#0a6775"/>
    </g>
    <g id="_822599ba-4b8e-4ff8-bc73-cffb15b9212a" data-name="822599ba-4b8e-4ff8-bc73-cffb15b9212a" transform="translate(116.669 58.46)">
      <path id="Path_6" data-name="Path 6" d="M2.3,6.976H.214v-.3H.455q.214,0,.242-.034h0a.328.328,0,0,0,.045-.2h0V2.327h0a.362.362,0,0,0-.051-.236h0a.41.41,0,0,0-.247-.045H.236l.006-.315H1.866a6.357,6.357,0,0,1,1.006.062h0a1.214,1.214,0,0,1,.607.275h0a1.726,1.726,0,0,1,.669,1.411h0a1.356,1.356,0,0,1-.433,1.006h0a1.672,1.672,0,0,1-1.231.422h0q-.1,0-.332-.017h0q-.056-.006-.3-.045h0q-.185-.039-.242-.045h0q-.163-.039-.174-.045h0l-.062-.011v1.7h0q0,.157.073.2h0a1.6,1.6,0,0,0,.461.034H2.3Zm-.927-4.57v2.1h0a1.287,1.287,0,0,0,.742.152h0a1.363,1.363,0,0,0,.961-.3h0a1.162,1.162,0,0,0,.326-.894h0a1.22,1.22,0,0,0-.512-1.04h0a2.073,2.073,0,0,0-1.282-.377h0a.22.22,0,0,0-.185.062h0a.512.512,0,0,0-.051.3Zm7.442-.36H8.6l.006-.315h1.81a4.934,4.934,0,0,1,.978.073h0a1.592,1.592,0,0,1,.624.3h0a1.384,1.384,0,0,1,.562,1.1h0a1.2,1.2,0,0,1-.264.748h0a1.525,1.525,0,0,1-.86.495h0l1.512,2.007h0a.469.469,0,0,0,.337.214h.337l.017.3H12.518L10.837,4.553h-.1a.353.353,0,0,0-.056.006h-.039a4.075,4.075,0,0,1-.72-.045h0V6.442h0q0,.169.084.2h0a1.642,1.642,0,0,0,.461.034h.4l-.017.3h-2.1v-.3h.18a.705.705,0,0,0,.3-.034h0q.045-.039.045-.2h0V2.327h0q0-.18-.107-.23h0a1.04,1.04,0,0,0-.365-.051Zm1.107.36V4.255h0a1.1,1.1,0,0,0,.506.079h0a1.734,1.734,0,0,0,1.04-.247h0a.876.876,0,0,0,.332-.759h0a1.161,1.161,0,0,0-.433-.927h0a1.834,1.834,0,0,0-1.2-.354h0a.228.228,0,0,0-.191.062h0a.586.586,0,0,0-.051.3Zm8.308,2h0a3.062,3.062,0,0,1,.225-1.209h0a2.43,2.43,0,0,1,.624-.877h0a2.756,2.756,0,0,1,.871-.523h0a2.883,2.883,0,0,1,1.006-.174h0a2.885,2.885,0,0,1,1.3.292h0a2.459,2.459,0,0,1,1.006.939h0a2.783,2.783,0,0,1,.4,1.506h0a2.883,2.883,0,0,1-.174,1.006h0a2.969,2.969,0,0,1-.512.877h0a2.384,2.384,0,0,1-.871.63h0a3.116,3.116,0,0,1-1.209.236h0a2.879,2.879,0,0,1-1.164-.23h0a2.139,2.139,0,0,1-.843-.613h0A2.824,2.824,0,0,1,18.4,5.4h0A3.066,3.066,0,0,1,18.235,4.4Zm.7-.253h0A3.279,3.279,0,0,0,19.185,5.4h0a2.157,2.157,0,0,0,.748.972h0a1.91,1.91,0,0,0,1.18.4h0a1.69,1.69,0,0,0,1.3-.579h0a2.337,2.337,0,0,0,.534-1.636h0a2.708,2.708,0,0,0-.652-1.9h0a1.991,1.991,0,0,0-1.5-.714h0a1.755,1.755,0,0,0-.6.112h0a2.192,2.192,0,0,0-.59.337h0a1.636,1.636,0,0,0-.483.691h0A2.766,2.766,0,0,0,18.937,4.148Zm9.309-2.1-.022-.315h2.125a10.109,10.109,0,0,1,1.231.062h0a2.206,2.206,0,0,1,.849.281h0a2.17,2.17,0,0,1,.815.871h0a2.6,2.6,0,0,1,.281,1.209h0a2.91,2.91,0,0,1-.084.708h0a2.853,2.853,0,0,1-.3.748h0a2.6,2.6,0,0,1-.556.691h0a2.577,2.577,0,0,1-.9.489h0a4.117,4.117,0,0,1-1.282.185H28.364l-.006-.3h.214a.772.772,0,0,0,.349-.045h0q.062-.051.062-.3h0v-4h0q0-.208-.056-.242h0a.873.873,0,0,0-.349-.039h-.332Zm1.372.422V6.307h0q0,.253.1.309h0a1.547,1.547,0,0,0,.573.056h0a3.366,3.366,0,0,0,1.04-.146h0a2.142,2.142,0,0,0,.725-.349h0a1.918,1.918,0,0,0,.444-.528h0a2.192,2.192,0,0,0,.247-.613h0A3,3,0,0,0,32.81,4.4h0a2.34,2.34,0,0,0-.146-.832h0a2.431,2.431,0,0,0-.45-.725h0a2.159,2.159,0,0,0-.809-.54h0a3.188,3.188,0,0,0-1.169-.2h-.292q-.208,0-.264.067h0a.523.523,0,0,0-.062.3Zm8.6-.422H38V1.731h1.889l.006.315h-.3a.747.747,0,0,0-.332.051h0q-.1.056-.1.242h0V5.244h0A1.055,1.055,0,0,0,39.2,5.5h0a1.911,1.911,0,0,0,.112.354h0a1.184,1.184,0,0,0,.264.382h0a1.411,1.411,0,0,0,.483.3h0a2.152,2.152,0,0,0,.764.124h0a2.574,2.574,0,0,0,.787-.1h0a1.521,1.521,0,0,0,.489-.253h0a.827.827,0,0,0,.253-.41h0a1.916,1.916,0,0,0,.1-.467h0q.011-.27.017-.556h0V2.327h0q0-.185-.079-.236h0a.888.888,0,0,0-.354-.045h-.275l.011-.315h1.484v.315h-.112a.347.347,0,0,0-.242.062h0a.427.427,0,0,0-.062.281h0V5.183h0q0,1.939-2.018,1.939h0a2.483,2.483,0,0,1-1.754-.512h0a1.746,1.746,0,0,1-.528-1.321h0V2.327h0a.334.334,0,0,0-.056-.236h0a.507.507,0,0,0-.264-.045Zm9.6,2.462h0a2.931,2.931,0,0,1,.264-1.231h0a2.34,2.34,0,0,1,.68-.877h0a3.33,3.33,0,0,1,.927-.506h0a2.866,2.866,0,0,1,.972-.18h0a5.392,5.392,0,0,1,.866.062h0a2.847,2.847,0,0,1,.517.118h0a1.6,1.6,0,0,0,.191.062h0q.1,0,.112-.039h0a.908.908,0,0,0,.011-.18h0V1.669h.3q.022.748.1,1.5h0l-.287.006h0q-.017-.141-.022-.219h0a.52.52,0,0,0-.006-.073h0a.316.316,0,0,0-.006-.062h0a.165.165,0,0,1-.006-.039h0a.661.661,0,0,1-.011-.118h0a.184.184,0,0,0-.028-.084h0q0-.011-.017-.022h0a.046.046,0,0,1-.017-.028h0a.084.084,0,0,0-.051-.051h0a.146.146,0,0,0-.039-.022h0l-.034-.011h0s-.009,0-.017-.011h0a.368.368,0,0,0-.039-.022h0l-.045-.022h0A.858.858,0,0,1,52,2.327h0a2.225,2.225,0,0,0-.556-.174h0a4.265,4.265,0,0,0-.753-.067h0a2.1,2.1,0,0,0-1.58.635h0a2.148,2.148,0,0,0-.618,1.563h0a2.5,2.5,0,0,0,.68,1.726h0a2.2,2.2,0,0,0,1.7.748h0a2.2,2.2,0,0,0,1.1-.3h0q.534-.309.551-.512h0l.022-.658h.275l-.045,1.147h0l-.112.067h0q-.028.017-.292.157h0a4.431,4.431,0,0,1-.461.214h0a2.626,2.626,0,0,1-.568.157h0a3.757,3.757,0,0,1-.658.073h0a2.988,2.988,0,0,1-2.1-.7h0A2.466,2.466,0,0,1,47.819,4.508Zm9.668-1.5L57.206,3h0q.067-.652.112-1.265H61.86q-.045.59-.062.815h0q-.022.41-.034.444h0l-.281-.011h0q.045-.54.045-.641h0a.231.231,0,0,0-.079-.208h0a.669.669,0,0,0-.32-.056h-.9a.668.668,0,0,0-.354.056h0q-.051.045-.056.32h0V6.307h0q0,.247.079.3h0a.751.751,0,0,0,.377.062h.315l.011.3-2.08-.006v-.3h.124a1.337,1.337,0,0,0,.461-.045h0q.079-.051.079-.287h0V2.518h0a.752.752,0,0,0-.056-.382h0q-.056-.062-.292-.062H58a.548.548,0,0,0-.141.011h0a.741.741,0,0,1-.1.006h0a.272.272,0,0,0-.084.039h0l-.062.039h0a.267.267,0,0,0-.034.073h0a.655.655,0,0,0-.034.084h0a.508.508,0,0,0-.028.124h0q-.011.129-.011.141h0a1.458,1.458,0,0,1-.011.191h0v.112h0q-.006.079-.011.112Zm9.056-.961h-.332l.006-.315H68.2v.315H68.06a1,1,0,0,0-.4.051h0q-.079.045-.079.309h0v3.9h0q0,.259.062.309h0a.666.666,0,0,0,.36.056h.309l.006.3H66.306l-.006-.3h.2a.716.716,0,0,0,.377-.056h0q.067-.056.067-.292h0v-4h0q0-.208-.062-.242h0a.85.85,0,0,0-.343-.039ZM72.883,4.4h0a3,3,0,0,1,.23-1.209h0a2.375,2.375,0,0,1,.618-.877h0a2.824,2.824,0,0,1,.877-.523h0a2.883,2.883,0,0,1,1.006-.174h0a2.885,2.885,0,0,1,1.3.292h0a2.459,2.459,0,0,1,1.006.939h0a2.749,2.749,0,0,1,.393,1.506h0a2.969,2.969,0,0,1-.169,1.006h0a2.908,2.908,0,0,1-.517.877h0a2.332,2.332,0,0,1-.866.63h0a3.116,3.116,0,0,1-1.209.236h0a2.854,2.854,0,0,1-1.164-.23h0a2.139,2.139,0,0,1-.843-.613h0a2.824,2.824,0,0,1-.489-.866h0A2.976,2.976,0,0,1,72.883,4.4Zm.708-.253h0A3.345,3.345,0,0,0,73.833,5.4h0a2.2,2.2,0,0,0,.753.972h0a1.886,1.886,0,0,0,1.175.4h0a1.679,1.679,0,0,0,1.3-.579h0a2.337,2.337,0,0,0,.534-1.636h0a2.708,2.708,0,0,0-.652-1.9h0a1.991,1.991,0,0,0-1.5-.714h0a1.708,1.708,0,0,0-.6.112h0a2.191,2.191,0,0,0-.59.337h0a1.612,1.612,0,0,0-.489.691h0A2.843,2.843,0,0,0,73.591,4.148Zm9.292-2.1-.006-.315H84.1l3.227,4.16V2.327h0q0-.185-.09-.236h0a.847.847,0,0,0-.343-.045h-.275l.017-.315h1.675v.315h-.18a.654.654,0,0,0-.349.062h0q-.084.062-.084.281h0V7.01h0a.286.286,0,0,1-.006.056h0a.15.15,0,0,1-.028.039h0a.1.1,0,0,1-.039.006h-.157l-.017-.006h0a.033.033,0,0,1-.022-.006h0a.043.043,0,0,1-.006-.017h0a.018.018,0,0,0-.011-.017h0l-.028-.039h0A.274.274,0,0,0,87.363,7h0l-.022-.028h0L83.912,2.563l.034,3.744h0q0,.253.1.309h0a1.219,1.219,0,0,0,.489.056h.135v.3H83.012v-.3h.236a.415.415,0,0,0,.275-.062h0a.518.518,0,0,0,.056-.287h0V2.136l-.084-.09Zm16.931,4.93h-1.7v-.3h.079a.787.787,0,0,0,.393-.056h0q.067-.051.079-.315h0l.073-3.839h0V2.406h0a.465.465,0,0,0,.006-.062h0v-.09h0q0-.141-.045-.169h0a.3.3,0,0,0-.18-.039h-.4l-.006-.315H99.3l1.793,4.2,1.765-4.2h1.259v.315h-.27a.789.789,0,0,0-.32.039h0q-.09.045-.09.208h0V6.307h0q0,.259.067.309h0a.839.839,0,0,0,.416.056h.157l.006.3h-1.911l-.011-.3h.157a.86.86,0,0,0,.416-.056h0a.422.422,0,0,0,.067-.292h0V2.715L101.6,5.571l-.483,1.186h0q-.079.2-.1.236h0a.069.069,0,0,1-.062.039h0q-.056,0-.309-.556h0l-1.58-3.659L99.027,6.4h0q0,.2.112.23h0a3.321,3.321,0,0,0,.675.039h0Zm8.623,0-.006-.3h.1a.4.4,0,0,0,.292-.079h0a3.613,3.613,0,0,0,.253-.506h0l.512-1.13.326-.725h0l.174-.377h0a.91.91,0,0,1,.067-.146h0a.279.279,0,0,0,.034-.084h0l.056-.135.8-1.951h.169q.478,1.259,1.709,4.221h0a6.483,6.483,0,0,0,.36.781h0a.353.353,0,0,0,.326.129h.118l-.006.3h-1.8l.011-.3h.23q.349,0,.349-.1h0a1.165,1.165,0,0,0-.079-.242h0L111.843,4.9h-1.821L109.4,6.284h0a.769.769,0,0,0-.079.253h0q0,.09.056.112h0a.917.917,0,0,0,.27.022h.32v.3Zm2.529-4.283-.8,1.861h1.54Zm7.105-.646-.006-.315h1.22l3.227,4.16V2.327h0q0-.185-.084-.236h0a.893.893,0,0,0-.349-.045H121.8l.017-.315H123.5v.315h-.18a.654.654,0,0,0-.349.062h0q-.084.062-.084.281h0V7.01h0a.286.286,0,0,1-.006.056h0a.071.071,0,0,1-.028.039h0a.075.075,0,0,1-.039.006h-.157l-.011-.006h0a.062.062,0,0,1-.028-.006h0a.043.043,0,0,1-.006-.017h0a.023.023,0,0,0-.006-.017h0a.366.366,0,0,1-.034-.039h0A.277.277,0,0,0,122.551,7h0a.061.061,0,0,0-.022-.028h0L119.1,2.563l.039,3.744h0q0,.253.09.309h0a1.219,1.219,0,0,0,.489.056h.135v.3H118.2v-.3h.236a.415.415,0,0,0,.275-.062h0a.458.458,0,0,0,.056-.287h0V2.136l-.079-.09Zm9.781,4.93-.006-.3h.1a.4.4,0,0,0,.292-.079h0a3.832,3.832,0,0,0,.259-.506h0L129,4.958l.32-.725h0q.152-.315.174-.377h0q.039-.09.067-.146h0a.279.279,0,0,0,.034-.084h0l.056-.135.8-1.951h.163q.483,1.259,1.709,4.221h0a5.686,5.686,0,0,0,.365.781h0q.073.129.32.129h.118l-.006.3h-1.793l.006-.3h.236q.343,0,.343-.1h0a1.165,1.165,0,0,0-.079-.242h0L131.264,4.9h-1.827l-.624,1.383h0a.769.769,0,0,0-.079.253h0q0,.09.056.112h0a.954.954,0,0,0,.27.022h.32v.3Zm2.529-4.283-.793,1.861h1.54ZM137.7,4.632h0a3.086,3.086,0,0,1,.343-1.417h0a2.949,2.949,0,0,1,1.04-1.124h0a2.872,2.872,0,0,1,1.6-.45h0a4.278,4.278,0,0,1,1.608.365h0v-.4h.315l.056,1.72-.309.006-.051-.815h0q-.051-.039-.2-.135h0a2.5,2.5,0,0,0-.568-.23h0a2.986,2.986,0,0,0-.911-.129h0a2.476,2.476,0,0,0-.984.185h0a1.833,1.833,0,0,0-.691.506h0a2.217,2.217,0,0,0-.4.7h0a2.386,2.386,0,0,0-.146.838h0a2.68,2.68,0,0,0,.63,1.754h0a2.077,2.077,0,0,0,1.681.764h0a2.437,2.437,0,0,0,.742-.112h0a1.515,1.515,0,0,0,.483-.208h0l.135-.112V4.935h-.939l-.006-.309h2.17l.011.309h-.6V6.543l-.444.191h0q-.388.18-.517.23h0a4.126,4.126,0,0,1-.5.124h0a3.282,3.282,0,0,1-.686.073h0a3.572,3.572,0,0,1-1.276-.208h0a2.412,2.412,0,0,1-.9-.568h0a2.335,2.335,0,0,1-.512-.8h0A2.669,2.669,0,0,1,137.7,4.632Zm9.966-2.586-.011-.315h4.058q.006.6.034,1.237h0l-.3.011h0q-.011-.36-.039-.59h0a.71.71,0,0,0-.056-.253h0a.126.126,0,0,0-.1-.062h0q-.051-.006-.382-.006h-1.338a.891.891,0,0,0-.388.051h0q-.067.051-.067.315h0v1.1h0a.686.686,0,0,0,.028.27h0q.039.045.23.045h1.186q.208,0,.253-.062h0a.716.716,0,0,0,.051-.332h0v-.3l.287.011V5.042h-.287v-.41h0a.826.826,0,0,0-.045-.377h0q-.045-.062-.242-.062h-1.18a.4.4,0,0,0-.236.045h0a.308.308,0,0,0-.045.2h0V6.3h0a.488.488,0,0,0,.045.264h0a.272.272,0,0,0,.2.056h0q1.641-.011,1.939-.045h0q.292-.034.337-.174h0l.006-.011V6.38l.129-.663.27.045-.2,1.214h-4v-.3h.208a.889.889,0,0,0,.365-.039h0q.051-.045.051-.264h0V2.383h0q0-.236-.084-.287h0a1.276,1.276,0,0,0-.467-.051h-.219Zm10.545,4.93h-1.7v-.3h.079a.8.8,0,0,0,.4-.056h0q.067-.051.073-.315h0l.073-3.839h0a.458.458,0,0,1,.006-.056h0a.464.464,0,0,0,.006-.062h0v-.09h0q0-.141-.045-.169h0a.32.32,0,0,0-.18-.039h-.4l-.011-.315H157.7l1.793,4.2,1.765-4.2h1.253v.315h-.264a.789.789,0,0,0-.32.039h0q-.09.045-.09.208h0V6.307h0q0,.259.062.309h0a.839.839,0,0,0,.416.056h.157l.011.3h-1.911l-.011-.3h.157a.82.82,0,0,0,.41-.056h0a.422.422,0,0,0,.067-.292h0V2.715l-1.209,2.856-.478,1.186h0q-.079.2-.1.236h0a.082.082,0,0,1-.067.039h0q-.051,0-.3-.556h0l-1.58-3.659L157.419,6.4h0q0,.2.112.23h0a3.365,3.365,0,0,0,.68.039h0Zm8.623-4.93-.011-.315h4.053q.011.6.039,1.237h0l-.3.011h0q-.011-.36-.039-.59h0a.71.71,0,0,0-.056-.253h0a.126.126,0,0,0-.1-.062h0q-.056-.006-.382-.006H168.7a.891.891,0,0,0-.388.051h0q-.073.051-.073.315h0v1.1h0a.58.58,0,0,0,.034.27h0q.039.045.23.045h1.186q.2,0,.253-.062h0a.716.716,0,0,0,.051-.332h0v-.3l.287.011V5.042h-.287v-.41h0a.826.826,0,0,0-.045-.377h0q-.045-.062-.242-.062h-1.18a.4.4,0,0,0-.236.045h0a.282.282,0,0,0-.051.2h0V6.3h0a.442.442,0,0,0,.051.264h0a.272.272,0,0,0,.2.056h0q1.641-.011,1.934-.045h0q.292-.034.343-.174h0V6.386l.006-.006.129-.663.264.045-.191,1.214h-4v-.3h.208a.841.841,0,0,0,.36-.039h0q.056-.045.056-.264h0V2.383h0q0-.236-.084-.287h0a1.276,1.276,0,0,0-.467-.051h-.219Zm8.769,0-.006-.315h1.22l3.227,4.16V2.327h0q0-.185-.09-.236h0a.847.847,0,0,0-.343-.045h-.275l.017-.315h1.675v.315h-.18a.654.654,0,0,0-.349.062h0q-.084.062-.084.281h0V7.01h0a.287.287,0,0,1-.006.056h0a.15.15,0,0,1-.028.039h0a.075.075,0,0,1-.039.006h-.157l-.017-.006h0a.05.05,0,0,1-.022-.006h0a.043.043,0,0,1-.006-.017h0a.023.023,0,0,0-.006-.017h0a.367.367,0,0,1-.034-.039h0A.271.271,0,0,0,180.083,7h0a.061.061,0,0,0-.022-.028h0l-3.429-4.407.039,3.744h0q0,.253.09.309h0a1.219,1.219,0,0,0,.489.056h.135v.3h-1.653v-.3h.236a.415.415,0,0,0,.275-.062h0a.518.518,0,0,0,.056-.287h0V2.136l-.079-.09Zm9.932.961L185.255,3h0q.067-.652.112-1.265h4.542q-.045.59-.062.815h0q-.022.41-.034.444h0l-.281-.011h0q.045-.54.045-.641h0a.231.231,0,0,0-.079-.208h0a.669.669,0,0,0-.32-.056h-.9a.669.669,0,0,0-.354.056h0q-.051.045-.056.32h0V6.307h0q0,.247.079.3h0a.751.751,0,0,0,.377.062h.315l.011.3L186.57,6.97v-.3h.118a1.337,1.337,0,0,0,.461-.045h0q.079-.051.079-.287h0V2.518h0a.752.752,0,0,0-.056-.382h0q-.056-.062-.292-.062h-.826a.548.548,0,0,0-.141.011h0a.74.74,0,0,1-.1.006h0a.231.231,0,0,0-.079.039h0a.358.358,0,0,0-.062.039h0a.169.169,0,0,0-.039.073h0a.654.654,0,0,0-.034.084h0q-.011.039-.028.124h0q-.011.129-.011.141h0a1.459,1.459,0,0,1-.011.191h0v.112h0q-.006.079-.011.112Zm14.086,2.636h0l.281-.034.1.489h0a1.032,1.032,0,0,0,.1.315h0a.862.862,0,0,0,.27.129h0a2.787,2.787,0,0,0,.972.174h0a1.113,1.113,0,0,0,.748-.259h0a.859.859,0,0,0,.3-.691h0a.789.789,0,0,0-.259-.59h0a3.423,3.423,0,0,0-.748-.512h0l-.32-.18h0a4.732,4.732,0,0,1-.551-.349h0a1.674,1.674,0,0,1-.377-.433h0a1.162,1.162,0,0,1-.174-.635h0a1.256,1.256,0,0,1,.472-1h0a1.64,1.64,0,0,1,1.09-.4h0a1.824,1.824,0,0,1,.354.039h0q.112.022.3.073h0l.135.045h0a.076.076,0,0,0,.073-.051h0a.227.227,0,0,0,.034-.1h0l.006-.056.27-.017.118,1.439-.281.011-.073-.7h0a1.721,1.721,0,0,0-1.068-.315h0a.962.962,0,0,0-.646.242h0a.764.764,0,0,0-.27.6h0a.809.809,0,0,0,.253.59h0a3.314,3.314,0,0,0,.731.512h0l.433.236h0a3.468,3.468,0,0,1,.832.613h0a1.04,1.04,0,0,1,.3.748h0a1.343,1.343,0,0,1-.483,1.034h0a1.88,1.88,0,0,1-1.3.438h0a2.36,2.36,0,0,1-.6-.073h0q-.287-.067-.315-.067h0q-.141,0-.141.163h0l.006.1-.27.022h0Q199.9,6.976,199.622,5.644Zm8.089-3.6h0l.011-.315h1.759v.315h-.157a2.5,2.5,0,0,0-.315.011h0q-.1.028-.1.09h0a1.125,1.125,0,0,0,.146.275h0l1.124,1.771,1.377-1.951h0a1.025,1.025,0,0,1,.051-.1h0q0-.1-.517-.1h-.124l-.006-.315h1.428v.315h-.039a.6.6,0,0,0-.275.045h0a.921.921,0,0,0-.253.281h0L210.3,4.592V6.307h0a.489.489,0,0,0,.062.309h0q.051.056.4.056h.354l-.011.3h-2.209l.011-.3h.315a.9.9,0,0,0,.371-.045h0q.067-.051.067-.3h0V4.531l-1.287-2.007h0a2.72,2.72,0,0,0-.309-.427h0A.7.7,0,0,0,207.711,2.046Zm9.016,3.6h0L217,5.61l.107.489h0a1.032,1.032,0,0,0,.1.315h0a.762.762,0,0,0,.264.129h0a2.8,2.8,0,0,0,.978.174h0a1.113,1.113,0,0,0,.748-.259h0a.859.859,0,0,0,.3-.691h0a.789.789,0,0,0-.259-.59h0a3.618,3.618,0,0,0-.748-.512h0l-.326-.18h0a4.848,4.848,0,0,1-.545-.349h0a1.62,1.62,0,0,1-.382-.433h0a1.163,1.163,0,0,1-.174-.635h0a1.256,1.256,0,0,1,.472-1h0a1.647,1.647,0,0,1,1.1-.4h0a1.823,1.823,0,0,1,.354.039h0q.112.022.3.073h0l.135.045h0a.08.08,0,0,0,.079-.051h0a.259.259,0,0,0,.028-.1h0l.011-.056.27-.017.118,1.439-.287.011-.067-.7h0a1.746,1.746,0,0,0-1.074-.315h0a.976.976,0,0,0-.646.242h0a.764.764,0,0,0-.27.6h0a.8.8,0,0,0,.259.59h0a3.349,3.349,0,0,0,.725.512h0l.438.236h0a3.468,3.468,0,0,1,.832.613h0a1.051,1.051,0,0,1,.3.748h0a1.349,1.349,0,0,1-.478,1.034h0a1.88,1.88,0,0,1-1.3.438h0a2.383,2.383,0,0,1-.6-.073h0q-.281-.067-.309-.067h0q-.146,0-.146.163h0l.011.1-.27.022h0Q217,6.976,216.727,5.644Zm8.167-2.636L224.614,3h0q.067-.652.112-1.265h4.542q-.045.59-.062.815h0q-.022.41-.034.444h0l-.281-.011h0q.051-.54.051-.641h0a.224.224,0,0,0-.084-.208h0a.669.669,0,0,0-.32-.056h-.9a.687.687,0,0,0-.354.056h0q-.051.045-.056.32h0V6.307h0q0,.247.079.3h0a.752.752,0,0,0,.377.062h.315l.011.3-2.074-.006v-.3h.118a1.337,1.337,0,0,0,.461-.045h0q.079-.051.079-.287h0V2.518h0a.752.752,0,0,0-.056-.382h0q-.056-.062-.292-.062h-.826a.589.589,0,0,0-.141.011h0a.741.741,0,0,1-.1.006h0a.231.231,0,0,0-.079.039h0a.358.358,0,0,0-.062.039h0a.169.169,0,0,0-.039.073h0a.654.654,0,0,0-.034.084h0a.95.95,0,0,0-.022.124h0q-.017.129-.017.141h0a1.455,1.455,0,0,1-.011.191h0v.112h0q-.006.079-.011.112Zm8.735-.961-.011-.315h4.053q.011.6.039,1.237h0l-.309.011h0a5.8,5.8,0,0,0-.034-.59h0a.711.711,0,0,0-.056-.253h0a.126.126,0,0,0-.1-.062h0q-.056-.006-.382-.006H235.5a.891.891,0,0,0-.388.051h0q-.073.051-.073.315h0v1.1h0a.58.58,0,0,0,.034.27h0q.039.045.23.045h1.186q.2,0,.253-.062h0a.693.693,0,0,0,.045-.332h0v-.3l.292.011V5.042h-.292v-.41h0a.935.935,0,0,0-.039-.377h0q-.045-.062-.242-.062h-1.18a.382.382,0,0,0-.236.045h0a.282.282,0,0,0-.051.2h0V6.3h0a.443.443,0,0,0,.051.264h0q.045.056.2.056h0q1.641-.011,1.934-.045h0q.292-.034.343-.174h0V6.386l.006-.006.124-.663.27.045-.2,1.214h-3.991v-.3h.208a.841.841,0,0,0,.36-.039h0q.056-.045.056-.264h0V2.383h0q0-.236-.084-.287h0a1.276,1.276,0,0,0-.467-.051h-.219Zm10.54,4.93h-1.7v-.3h.079a.767.767,0,0,0,.393-.056h0q.073-.051.079-.315h0l.073-3.839h0a.453.453,0,0,1,.006-.056h0V2.344h0v-.09h0q0-.141-.039-.169h0a.32.32,0,0,0-.18-.039h-.4l-.011-.315h1.186l1.8,4.2,1.759-4.2h1.259v.315h-.264a.836.836,0,0,0-.326.039h0q-.084.045-.084.208h0V6.307h0q0,.259.062.309h0a.839.839,0,0,0,.416.056h.157l.006.3h-1.906l-.011-.3h.157a.841.841,0,0,0,.41-.056h0a.422.422,0,0,0,.067-.292h0V2.715l-1.209,2.856-.483,1.186h0a1.44,1.44,0,0,1-.1.236h0a.069.069,0,0,1-.062.039h0q-.056,0-.309-.556h0l-1.58-3.659L243.382,6.4h0q0,.2.112.23h0a3.32,3.32,0,0,0,.675.039h0Z" fill="#0a6775"/>
    </g>
  </g>
</svg>
