<svg width="428" height="90" viewBox="0 0 428 90" fill="none" xmlns="http://www.w3.org/2000/svg">
<path d="M116.82 69C116.02 69 115.34 68.74 114.78 68.22C114.26 67.66 114 66.98 114 66.18V24.96C114 24.16 114.26 23.5 114.78 22.98C115.34 22.42 116.02 22.14 116.82 22.14H128.82C131.82 22.14 134.46 22.8 136.74 24.12C139.06 25.44 140.86 27.26 142.14 29.58C143.42 31.86 144.06 34.52 144.06 37.56C144.06 40.48 143.42 43.08 142.14 45.36C140.86 47.64 139.06 49.42 136.74 50.7C134.46 51.98 131.82 52.62 128.82 52.62H119.64V66.18C119.64 66.98 119.38 67.66 118.86 68.22C118.34 68.74 117.66 69 116.82 69ZM119.64 47.34H128.82C130.74 47.34 132.44 46.92 133.92 46.08C135.4 45.24 136.56 44.08 137.4 42.6C138.24 41.12 138.66 39.44 138.66 37.56C138.66 35.56 138.24 33.8 137.4 32.28C136.56 30.76 135.4 29.58 133.92 28.74C132.44 27.86 130.74 27.42 128.82 27.42H119.64V47.34ZM153.068 48.6C153.148 46.16 153.768 43.98 154.928 42.06C156.128 40.14 157.708 38.62 159.668 37.5C161.628 36.38 163.788 35.82 166.148 35.82C168.348 35.82 169.988 36.16 171.068 36.84C172.188 37.52 172.608 38.38 172.328 39.42C172.208 40.02 171.968 40.46 171.608 40.74C171.248 40.98 170.828 41.12 170.348 41.16C169.868 41.16 169.348 41.12 168.788 41.04C166.348 40.64 164.168 40.7 162.248 41.22C160.328 41.74 158.808 42.64 157.688 43.92C156.568 45.2 156.008 46.76 156.008 48.6H153.068ZM153.248 69C152.408 69 151.748 68.78 151.268 68.34C150.788 67.86 150.548 67.18 150.548 66.3V38.88C150.548 38.04 150.788 37.38 151.268 36.9C151.748 36.42 152.408 36.18 153.248 36.18C154.168 36.18 154.848 36.42 155.288 36.9C155.768 37.34 156.008 38 156.008 38.88V66.3C156.008 67.14 155.768 67.8 155.288 68.28C154.848 68.76 154.168 69 153.248 69ZM191.503 69.24C188.303 69.24 185.443 68.54 182.923 67.14C180.443 65.7 178.483 63.74 177.043 61.26C175.643 58.74 174.943 55.86 174.943 52.62C174.943 49.34 175.643 46.46 177.043 43.98C178.483 41.46 180.443 39.5 182.923 38.1C185.443 36.66 188.303 35.94 191.503 35.94C194.703 35.94 197.543 36.66 200.023 38.1C202.543 39.5 204.503 41.46 205.903 43.98C207.343 46.46 208.083 49.34 208.123 52.62C208.123 55.86 207.403 58.74 205.963 61.26C204.523 63.74 202.563 65.7 200.083 67.14C197.603 68.54 194.743 69.24 191.503 69.24ZM191.503 64.32C193.703 64.32 195.643 63.82 197.323 62.82C199.003 61.82 200.323 60.44 201.283 58.68C202.243 56.92 202.723 54.9 202.723 52.62C202.723 50.34 202.243 48.32 201.283 46.56C200.323 44.76 199.003 43.36 197.323 42.36C195.643 41.36 193.703 40.86 191.503 40.86C189.343 40.86 187.403 41.36 185.683 42.36C184.003 43.36 182.683 44.76 181.723 46.56C180.763 48.32 180.283 50.34 180.283 52.62C180.283 54.9 180.763 56.92 181.723 58.68C182.683 60.44 184.003 61.82 185.683 62.82C187.403 63.82 189.343 64.32 191.503 64.32ZM232.05 69.24C228.93 69.24 226.11 68.52 223.59 67.08C221.11 65.6 219.13 63.6 217.65 61.08C216.21 58.56 215.49 55.72 215.49 52.56C215.49 49.4 216.17 46.58 217.53 44.1C218.89 41.58 220.75 39.6 223.11 38.16C225.47 36.68 228.15 35.94 231.15 35.94C233.63 35.94 235.89 36.46 237.93 37.5C240.01 38.54 241.73 39.94 243.09 41.7V24.9C243.09 24.06 243.35 23.4 243.87 22.92C244.39 22.4 245.05 22.14 245.85 22.14C246.69 22.14 247.37 22.4 247.89 22.92C248.41 23.4 248.67 24.06 248.67 24.9V52.68C248.63 55.8 247.87 58.62 246.39 61.14C244.95 63.66 242.97 65.64 240.45 67.08C237.97 68.52 235.17 69.24 232.05 69.24ZM232.05 64.32C234.21 64.32 236.13 63.82 237.81 62.82C239.49 61.78 240.81 60.38 241.77 58.62C242.77 56.82 243.27 54.8 243.27 52.56C243.27 50.32 242.77 48.32 241.77 46.56C240.81 44.8 239.49 43.42 237.81 42.42C236.13 41.38 234.21 40.86 232.05 40.86C229.97 40.86 228.07 41.38 226.35 42.42C224.63 43.42 223.27 44.8 222.27 46.56C221.31 48.32 220.83 50.32 220.83 52.56C220.83 54.8 221.31 56.82 222.27 58.62C223.27 60.38 224.63 61.78 226.35 62.82C228.07 63.82 229.97 64.32 232.05 64.32ZM273.454 69.3C270.654 69.3 268.154 68.72 265.954 67.56C263.754 66.36 262.014 64.62 260.734 62.34C259.454 60.06 258.814 57.28 258.814 54V38.88C258.814 38.12 259.074 37.48 259.594 36.96C260.154 36.4 260.814 36.12 261.574 36.12C262.374 36.12 263.034 36.4 263.554 36.96C264.114 37.48 264.394 38.12 264.394 38.88V54C264.394 56.32 264.834 58.24 265.714 59.76C266.594 61.28 267.774 62.42 269.254 63.18C270.774 63.9 272.474 64.26 274.354 64.26C276.194 64.26 277.814 63.9 279.214 63.18C280.654 62.46 281.794 61.5 282.634 60.3C283.514 59.06 283.954 57.68 283.954 56.16H287.554C287.474 58.64 286.814 60.88 285.574 62.88C284.374 64.88 282.714 66.46 280.594 67.62C278.474 68.74 276.094 69.3 273.454 69.3ZM286.714 69C285.914 69 285.254 68.74 284.734 68.22C284.214 67.7 283.954 67.04 283.954 66.24V38.88C283.954 38.08 284.214 37.42 284.734 36.9C285.254 36.38 285.914 36.12 286.714 36.12C287.514 36.12 288.174 36.38 288.694 36.9C289.214 37.42 289.474 38.08 289.474 38.88V66.24C289.474 67.04 289.214 67.7 288.694 68.22C288.174 68.74 287.514 69 286.714 69ZM315.015 69.24C311.855 69.24 309.035 68.52 306.555 67.08C304.075 65.6 302.115 63.62 300.675 61.14C299.275 58.62 298.575 55.78 298.575 52.62C298.575 49.38 299.255 46.5 300.615 43.98C302.015 41.46 303.915 39.5 306.315 38.1C308.715 36.66 311.495 35.94 314.655 35.94C317.015 35.94 319.195 36.4 321.195 37.32C323.195 38.24 324.975 39.62 326.535 41.46C327.055 42.02 327.235 42.62 327.075 43.26C326.955 43.9 326.555 44.46 325.875 44.94C325.395 45.3 324.835 45.42 324.195 45.3C323.555 45.18 322.995 44.84 322.515 44.28C320.395 42 317.775 40.86 314.655 40.86C312.535 40.86 310.655 41.36 309.015 42.36C307.415 43.36 306.155 44.74 305.235 46.5C304.355 48.22 303.915 50.26 303.915 52.62C303.915 54.86 304.375 56.86 305.295 58.62C306.255 60.38 307.575 61.78 309.255 62.82C310.935 63.82 312.855 64.32 315.015 64.32C316.495 64.32 317.815 64.14 318.975 63.78C320.135 63.42 321.175 62.84 322.095 62.04C322.655 61.56 323.235 61.3 323.835 61.26C324.475 61.22 325.035 61.4 325.515 61.8C326.115 62.32 326.455 62.9 326.535 63.54C326.615 64.18 326.395 64.74 325.875 65.22C322.995 67.9 319.375 69.24 315.015 69.24ZM348.473 69C346.433 69 344.593 68.5 342.953 67.5C341.313 66.46 340.033 65.08 339.113 63.36C338.193 61.6 337.733 59.6 337.733 57.36V28.5C337.733 27.7 337.973 27.04 338.453 26.52C338.973 26 339.633 25.74 340.433 25.74C341.233 25.74 341.893 26 342.413 26.52C342.933 27.04 343.193 27.7 343.193 28.5V57.36C343.193 59.16 343.693 60.64 344.693 61.8C345.693 62.96 346.953 63.54 348.473 63.54H350.333C351.013 63.54 351.573 63.8 352.013 64.32C352.493 64.84 352.733 65.5 352.733 66.3C352.733 67.1 352.433 67.76 351.833 68.28C351.273 68.76 350.533 69 349.613 69H348.473ZM334.493 42.12C333.773 42.12 333.173 41.9 332.693 41.46C332.213 41.02 331.973 40.46 331.973 39.78C331.973 39.06 332.213 38.48 332.693 38.04C333.173 37.6 333.773 37.38 334.493 37.38H348.953C349.673 37.38 350.273 37.6 350.753 38.04C351.233 38.48 351.473 39.06 351.473 39.78C351.473 40.46 351.233 41.02 350.753 41.46C350.273 41.9 349.673 42.12 348.953 42.12H334.493ZM363.795 69C362.955 69 362.275 68.74 361.755 68.22C361.235 67.7 360.975 67.04 360.975 66.24V38.94C360.975 38.1 361.235 37.44 361.755 36.96C362.275 36.44 362.955 36.18 363.795 36.18C364.595 36.18 365.255 36.44 365.775 36.96C366.295 37.44 366.555 38.1 366.555 38.94V66.24C366.555 67.04 366.295 67.7 365.775 68.22C365.255 68.74 364.595 69 363.795 69ZM363.735 30.48C362.735 30.48 361.875 30.12 361.155 29.4C360.435 28.68 360.075 27.8 360.075 26.76C360.075 25.72 360.435 24.86 361.155 24.18C361.915 23.46 362.795 23.1 363.795 23.1C364.755 23.1 365.595 23.46 366.315 24.18C367.075 24.86 367.455 25.72 367.455 26.76C367.455 27.8 367.095 28.68 366.375 29.4C365.655 30.12 364.775 30.48 363.735 30.48ZM381.788 69C381.108 69 380.488 68.76 379.928 68.28C379.408 67.76 379.148 67.08 379.148 66.24V36.3C379.148 33.46 379.688 30.98 380.768 28.86C381.848 26.74 383.368 25.1 385.328 23.94C387.328 22.74 389.668 22.14 392.348 22.14C393.148 22.14 393.808 22.38 394.328 22.86C394.848 23.34 395.108 23.94 395.108 24.66C395.108 25.34 394.848 25.94 394.328 26.46C393.808 26.94 393.148 27.18 392.348 27.18C390.748 27.18 389.368 27.54 388.208 28.26C387.088 28.98 386.208 30 385.568 31.32C384.968 32.6 384.668 34.12 384.668 35.88V66.24C384.668 67.08 384.408 67.76 383.888 68.28C383.408 68.76 382.708 69 381.788 69ZM376.088 42.12C375.328 42.12 374.708 41.9 374.228 41.46C373.788 41.02 373.568 40.46 373.568 39.78C373.568 39.06 373.788 38.48 374.228 38.04C374.708 37.6 375.328 37.38 376.088 37.38H391.208C391.968 37.38 392.588 37.6 393.068 38.04C393.548 38.48 393.788 39.06 393.788 39.78C393.788 40.46 393.548 41.02 393.068 41.46C392.588 41.9 391.968 42.12 391.208 42.12H376.088ZM405.859 83.34C405.499 83.34 405.079 83.24 404.599 83.04C402.999 82.32 402.559 81.18 403.279 79.62L421.999 37.74C422.719 36.22 423.859 35.78 425.419 36.42C427.059 37.1 427.519 38.24 426.799 39.84L408.019 81.66C407.539 82.78 406.819 83.34 405.859 83.34ZM412.819 67.8C412.099 68.12 411.439 68.16 410.839 67.92C410.239 67.68 409.759 67.22 409.399 66.54L395.779 39.78C395.419 39.1 395.359 38.44 395.599 37.8C395.879 37.16 396.379 36.7 397.099 36.42C397.779 36.1 398.419 36.06 399.019 36.3C399.659 36.5 400.139 36.96 400.459 37.68L413.599 64.38C413.999 65.1 414.139 65.78 414.019 66.42C413.899 67.02 413.499 67.48 412.819 67.8Z" fill="black"/>
<path d="M83.0162 48.5736C83.8031 48.5736 84.4588 48.5736 85.2457 48.706C84.0654 36.3972 77.1146 25.6766 67.0162 19.7207C64.2621 27.6619 56.7867 33.3531 47.9998 33.3531C39.2129 33.3531 31.7375 27.6619 28.9834 19.7207C18.8851 25.6766 11.9342 36.3972 10.7539 48.706C11.4096 48.5736 12.1965 48.5736 12.9834 48.5736C24.131 48.5736 33.1801 57.706 33.1801 68.956C33.1801 74.6472 30.8195 79.8089 27.1473 83.5148C33.1801 87.6177 40.3933 90.0001 48.131 90.0001C55.8687 90.0001 63.0818 87.6177 69.1146 83.5148C65.3113 79.8089 63.0818 74.6472 63.0818 68.956C62.9506 57.706 71.9998 48.5736 83.0162 48.5736V48.5736Z" fill="black"/>
<path d="M48 26.0735C55.082 26.0735 60.9836 20.25 60.9836 12.9706C60.9836 5.69117 55.082 0 48 0C40.918 0 35.0164 5.82353 35.0164 13.1029C35.0164 20.3823 40.918 26.0735 48 26.0735ZM12.9836 55.8529C5.90164 55.8529 0 61.6765 0 68.9559C0 76.1029 5.77049 82.0588 12.9836 82.0588C20.0656 82.0588 25.9672 76.2353 25.9672 68.9559C25.8361 61.8088 20.0656 55.8529 12.9836 55.8529V55.8529ZM83.0164 55.8529C75.9344 55.8529 70.0328 61.6765 70.0328 68.9559C70.0328 76.1029 75.8033 82.0588 83.0164 82.0588C90.0984 82.0588 96 76.2353 96 68.9559C96 61.8088 90.2295 55.8529 83.0164 55.8529V55.8529Z" fill="black"/>
</svg>
